<?xml version="1.0" standalone="no"?>
<!DOCTYPE svg PUBLIC "-//W3C//DTD SVG 20010904//EN"
 "http://www.w3.org/TR/2001/REC-SVG-20010904/DTD/svg10.dtd">
<svg version="1.0" xmlns="http://www.w3.org/2000/svg"
 width="280.000000pt" height="280.000000pt" viewBox="0 0 280.000000 280.000000"
 preserveAspectRatio="xMidYMid meet">
<metadata>
Created by potrace 1.11, written by Peter Selinger 2001-2013
</metadata>
<g transform="translate(0.000000,280.000000) scale(0.100000,-0.100000)"
fill="#000000" stroke="none">
<path d="M447 1964 c-1 -1 -15 -5 -30 -8 -96 -17 -179 -128 -156 -209 11 -38
37 -58 104 -81 72 -24 82 -32 69 -53 -22 -36 -102 -23 -148 23 -15 14 -19 13
-55 -15 -61 -49 -67 -58 -46 -81 28 -31 100 -53 173 -53 134 0 222 70 222 176
0 50 -29 79 -104 106 -72 25 -80 32 -71 60 11 36 95 32 95 -4 0 -18 13 -18 80
-4 46 10 50 13 50 39 0 38 -42 87 -83 96 -35 8 -95 13 -100 8z"/>
<path d="M780 1955 c0 -3 -12 -49 -26 -103 -14 -53 -28 -104 -29 -112 -2 -8
-16 -58 -31 -110 -44 -157 -47 -141 31 -138 l68 3 13 45 c7 25 18 64 24 88
l11 42 78 0 79 0 -24 -87 c-13 -49 -24 -89 -24 -90 0 -2 30 -3 68 -3 l67 0 59
223 c33 122 61 228 64 235 3 9 -14 12 -66 12 l-70 0 -22 -90 -22 -90 -78 0
-78 0 9 38 c4 20 15 60 23 87 9 28 16 51 16 53 0 1 -31 2 -70 2 -38 0 -70 -2
-70 -5z"/>
<path d="M1345 1948 c-34 -110 -95 -342 -95 -363 0 -12 112 -16 124 -4 3 3 25
80 50 171 24 92 47 176 51 187 6 20 2 21 -60 21 -44 0 -67 -4 -70 -12z"/>
<path d="M1585 1853 c-16 -60 -30 -112 -31 -118 -1 -5 -16 -62 -33 -125 -17
-63 -31 -116 -31 -117 0 -2 31 -3 69 -3 l69 0 6 34 c4 19 13 57 22 85 l15 51
83 0 84 0 5 29 c3 16 9 40 12 54 l7 26 -77 0 c-43 0 -79 2 -81 4 -2 1 1 20 7
40 l10 37 94 0 94 0 11 43 c6 23 13 48 15 55 3 9 -33 12 -158 12 l-163 0 -29
-107z"/>
<path d="M2012 1928 c-25 -83 -29 -78 55 -78 l75 0 -7 -37 c-4 -21 -18 -72
-31 -115 -19 -61 -34 -87 -68 -122 l-44 -44 36 -51 c21 -28 39 -51 42 -51 13
0 83 74 110 117 30 47 42 79 80 221 l23 82 58 0 c33 0 59 3 59 8 0 4 7 28 15
55 l14 47 -204 0 -203 0 -10 -32z"/>
<path d="M2203 1328 c-59 -64 -86 -118 -118 -235 -13 -48 -33 -123 -44 -165
-12 -43 -21 -82 -21 -88 0 -6 28 -10 68 -10 l68 0 39 148 c43 165 60 206 111
262 22 24 33 44 28 52 -16 29 -66 88 -73 88 -5 0 -30 -24 -58 -52z"/>
<path d="M200 1283 c-30 -16 -67 -45 -84 -66 -25 -31 -30 -47 -30 -93 -1 -66
13 -81 112 -115 46 -17 62 -28 62 -41 0 -20 -34 -38 -62 -32 -28 5 -88 36 -88
45 0 20 -30 7 -71 -30 -51 -46 -48 -63 17 -96 109 -54 282 -16 328 73 44 85
20 148 -69 181 -30 12 -60 21 -64 21 -16 0 -31 27 -25 44 3 9 17 19 31 22 32
8 77 -12 69 -31 -7 -18 -2 -18 66 -3 58 13 68 21 62 51 -17 92 -144 126 -254
70z"/>
<path d="M594 1302 c-15 -2 -25 -15 -33 -41 -18 -63 -15 -73 22 -71 17 1 51 2
73 1 l42 -1 -25 -87 c-29 -104 -34 -114 -83 -167 l-38 -41 34 -48 c19 -26 39
-47 46 -47 19 0 96 87 122 137 18 37 76 225 76 249 0 2 27 4 60 4 l59 0 11 43
c6 23 13 48 15 55 2 6 -3 12 -13 13 -66 2 -351 3 -368 1z"/>
<path d="M1050 1226 c-12 -45 -32 -117 -44 -161 -24 -91 -21 -151 10 -186 60
-68 204 -66 296 4 63 48 94 114 133 286 2 9 11 40 19 70 8 30 13 57 11 61 -2
4 -32 6 -66 6 l-62 -1 -13 -45 c-7 -25 -26 -97 -44 -160 -22 -83 -37 -119 -53
-131 -39 -28 -62 -31 -90 -9 l-25 20 38 149 c22 81 40 154 42 161 2 11 -13 14
-64 15 l-67 1 -21 -80z"/>
<path d="M1615 1300 c-4 -7 -125 -455 -125 -463 0 -2 60 -3 133 -2 110 2 140
6 180 23 83 37 143 119 168 229 22 98 -13 179 -88 204 -40 13 -261 20 -268 9z
m204 -124 c22 -23 19 -102 -7 -153 -30 -58 -65 -83 -118 -83 l-43 0 26 93 c14
50 30 109 36 131 10 38 11 38 50 33 22 -3 47 -13 56 -21z"/>
<path d="M2550 1301 c-135 -44 -230 -170 -230 -304 0 -102 68 -167 174 -167
65 0 74 7 91 65 21 69 20 78 -7 64 -84 -45 -146 35 -104 136 36 85 127 124
176 75 32 -32 21 -124 -20 -168 -11 -11 -20 -23 -20 -25 0 -2 35 -3 77 -3 l77
2 18 39 c12 27 18 65 18 118 0 89 -14 123 -63 152 -33 20 -146 30 -187 16z"/>
</g>
</svg>
