<svg id="Layer_1" data-name="Layer 1" xmlns="http://www.w3.org/2000/svg" viewBox="0 0 531 449"><defs><style>.cls-1{fill:#4b7cb7;}</style></defs><title>strategyBG-flake</title><polygon class="cls-1" points="0 224 58 224 0 282 0 224"/><polygon class="cls-1" points="87 250 58 250 87 221 87 250"/><polygon class="cls-1" points="320 279 291 279 320 250 320 279"/><polygon class="cls-1" points="496 391 467 391 496 362 496 391"/><polygon class="cls-1" points="232 163 203 163 232 134 232 163"/><polygon class="cls-1" points="126 38 97 38 126 9 126 38"/><polygon class="cls-1" points="368 449 339 449 368 420 368 449"/><polygon class="cls-1" points="473 151 531 151 473 209 473 151"/><polygon class="cls-1" points="203 0 261 0 203 58 203 0"/><polygon class="cls-1" points="203 391 261 391 203 449 203 391"/></svg>